# xmcd
#
# Track frame offsets:
#	150
#	14377
#	29705
#	46320
#	60012
#	81127
#	93700
#	113325
#	126092
#	138272
#
# Disc length: 2092 seconds
#
# Revision: 1
# Processed by: cddbd v1.5.1PL2 Copyright (c) Steve Scherf et al.
# Submitted via: audiograbber 1.83.01
#
DISCID=77082a0a
DTITLE=Perfect Heart - Turning Point
DYEAR=1996
DGENRE=Southern Gospel
TTITLE0=The Fountain
TTITLE1=Glory Highway
TTITLE2=I'm Longing For Home
TTITLE3=I'll Be Leaving
TTITLE4=Crucified For Me
TTITLE5=Maybe One More Day
TTITLE6=There He Is
TTITLE7=That's The Way He Is
TTITLE8=Because He Is
TTITLE9=Standing In The Bloodline
EXTD=
EXTT0=
EXTT1=
EXTT2=
EXTT3=
EXTT4=
EXTT5=
EXTT6=
EXTT7=
EXTT8=
EXTT9=
PLAYORDER=
